<?xml version="1.0" standalone="no"?>
<!DOCTYPE svg PUBLIC "-//W3C//DTD SVG 20010904//EN"
 "http://www.w3.org/TR/2001/REC-SVG-20010904/DTD/svg10.dtd">
<svg version="1.0" xmlns="http://www.w3.org/2000/svg"
 width="256.000000pt" height="256.000000pt" viewBox="0 0 256.000000 256.000000"
 preserveAspectRatio="xMidYMid meet">

<g transform="translate(0.000000,256.000000) scale(0.100000,-0.100000)"
fill="#000000" stroke="none">
<path d="M1113 2225 c-201 -36 -383 -134 -524 -283 -359 -375 -357 -956 5
-1330 169 -176 393 -276 641 -289 455 -23 853 273 977 726 31 110 31 352 0
462 -103 377 -397 649 -769 714 -102 18 -232 18 -330 0z m337 -109 c167 -35
308 -112 431 -235 167 -168 249 -364 249 -601 0 -237 -82 -433 -249 -601 -168
-167 -364 -249 -601 -249 -237 0 -433 82 -601 249 -124 125 -199 264 -236 436
-23 110 -13 306 22 415 96 301 331 516 640 585 79 18 263 18 345 1z"/>
<path d="M1230 1655 l0 -55 50 0 50 0 0 55 0 55 -50 0 -50 0 0 -55z"/>
<path d="M1230 1170 l0 -320 50 0 50 0 0 320 0 320 -50 0 -50 0 0 -320z"/>
</g>
</svg>
