<?xml version="1.0" standalone="no"?>
<!DOCTYPE svg PUBLIC "-//W3C//DTD SVG 20010904//EN"
 "http://www.w3.org/TR/2001/REC-SVG-20010904/DTD/svg10.dtd">
<svg version="1.0" xmlns="http://www.w3.org/2000/svg"
 width="256.000000pt" height="256.000000pt" viewBox="0 0 256.000000 256.000000"
 preserveAspectRatio="xMidYMid meet">

<g transform="translate(0.000000,256.000000) scale(0.100000,-0.100000)"
fill="#000000" stroke="none">
<path d="M1116 2549 c-483 -67 -895 -404 -1046 -857 -50 -152 -64 -242 -64
-412 0 -171 14 -260 65 -415 121 -362 433 -673 797 -795 152 -50 242 -64 412
-64 274 0 482 62 710 212 277 183 475 480 547 822 24 117 24 363 0 480 -57
271 -178 492 -371 678 -182 175 -391 286 -641 337 -96 20 -314 28 -409 14z
m263 -229 c247 -26 467 -129 639 -302 172 -172 276 -392 301 -638 51 -496
-268 -965 -751 -1104 -553 -159 -1133 163 -1292 716 -159 554 163 1134 719
1293 75 21 159 35 266 44 9 0 62 -4 118 -9z"/>
<path d="M1238 2011 c-69 -22 -108 -74 -108 -146 0 -157 199 -215 280 -83 25
42 26 119 3 160 -33 55 -115 87 -175 69z"/>
<path d="M1218 1453 c-53 -33 -53 -37 -53 -443 0 -306 3 -382 14 -403 42 -79
160 -79 202 0 20 37 21 767 1 805 -29 54 -110 74 -164 41z"/>
</g>
</svg>
