<?xml version="1.0" standalone="no"?>
<!DOCTYPE svg PUBLIC "-//W3C//DTD SVG 20010904//EN"
 "http://www.w3.org/TR/2001/REC-SVG-20010904/DTD/svg10.dtd">
<svg version="1.0" xmlns="http://www.w3.org/2000/svg"
 width="360.000000pt" height="360.000000pt" viewBox="0 0 360.000000 360.000000"
 preserveAspectRatio="xMidYMid meet">

<g transform="translate(0.000000,360.000000) scale(0.100000,-0.100000)"
fill="#000000" stroke="none">
<path d="M1827 3350 c-131 -33 -230 -143 -273 -301 -8 -30 -19 -96 -24 -146
l-10 -93 -87 -91 c-81 -84 -98 -96 -203 -148 -139 -68 -170 -101 -195 -214
l-16 -72 -68 -33 c-116 -56 -194 -140 -236 -257 -10 -27 -27 -59 -37 -71 -10
-11 -77 -51 -149 -90 -187 -98 -211 -122 -249 -242 -38 -117 -44 -128 -109
-177 -63 -48 -101 -118 -101 -184 0 -51 29 -118 85 -195 42 -58 42 -66 14
-258 -12 -79 -22 -195 -23 -258 -1 -104 1 -120 24 -164 38 -75 66 -91 158 -90
89 0 135 19 194 81 75 78 78 155 13 350 -25 73 -45 152 -45 174 0 43 -4 42 60
23 32 -9 79 6 95 29 8 12 19 56 26 97 7 41 17 78 23 82 6 4 32 8 58 8 26 0
130 11 230 24 287 39 387 50 392 45 3 -3 10 -60 15 -128 10 -128 16 -143 62
-167 38 -19 73 -18 117 5 74 38 108 106 118 233 l7 85 75 7 c42 3 248 26 459
51 l383 45 51 -35 c74 -51 109 -48 168 12 l46 46 230 23 c415 41 405 40 427
61 28 29 37 82 38 219 0 368 -145 702 -449 1026 -269 287 -723 586 -1014 669
-83 23 -225 33 -280 19z m175 -254 c169 -43 356 -132 539 -258 213 -145 359
-301 622 -665 l38 -52 -38 -6 c-69 -11 -136 -36 -180 -66 -39 -27 -44 -28 -49
-12 -57 179 -173 325 -351 443 -144 94 -426 228 -627 296 -85 29 -106 30 -139
3 -21 -16 -34 -19 -63 -13 l-37 7 7 78 c8 97 36 188 71 234 23 30 32 35 69 35
24 0 86 -11 138 -24z m-306 -415 c16 -5 42 -16 56 -25 28 -18 51 -14 86 17
l22 21 128 -48 c286 -107 458 -210 594 -354 130 -139 209 -282 233 -427 4 -22
16 -56 27 -76 l21 -37 -22 -63 c-12 -35 -24 -91 -28 -124 -8 -85 -1 -90 146
-88 l116 1 -127 -13 c-138 -15 -160 -22 -199 -68 l-26 -31 -51 34 c-38 24 -49
36 -42 46 10 11 6 130 -6 211 -7 45 -30 48 -113 13 -96 -41 -156 -48 -231 -25
l-59 18 -71 -43 c-70 -42 -72 -43 -143 -37 -82 6 -98 0 -142 -50 -25 -28 -44
-37 -109 -53 -136 -34 -183 -78 -171 -159 13 -84 11 -274 -3 -307 -17 -39 -56
-63 -80 -48 -14 9 -19 35 -25 130 -10 137 -18 164 -49 164 -21 0 -21 1 6 29
32 34 37 74 12 99 -19 20 -94 20 -193 2 -60 -12 -63 -11 -122 20 -54 29 -66
32 -113 26 -68 -9 -128 -44 -161 -95 -32 -48 -34 -84 -7 -111 18 -18 32 -23
85 -33 19 -3 -79 -16 -255 -34 l-75 -8 -2 -45 c-2 -25 -8 -69 -14 -97 -12 -59
-26 -66 -76 -36 -42 23 -77 12 -98 -34 -24 -50 -15 -123 34 -271 50 -152 57
-198 38 -245 -39 -92 -205 -101 -242 -13 -22 52 -18 157 11 340 37 234 32 273
-52 391 -55 77 -49 93 89 208 40 33 51 51 88 147 25 64 52 119 68 134 14 13
81 54 148 90 68 36 142 78 166 94 45 31 50 40 92 137 51 117 110 175 215 210
77 26 95 49 109 139 6 43 15 85 20 95 5 9 42 30 83 45 103 41 140 66 245 168
78 76 96 89 115 84 13 -4 37 -11 54 -15z m1542 -867 c42 -9 76 -23 79 -31 3
-8 2 -47 -3 -86 l-9 -72 -95 -11 c-52 -6 -131 -22 -175 -36 -44 -14 -95 -29
-114 -33 l-33 -7 7 33 c23 113 52 164 123 212 46 32 107 56 131 51 9 -1 49
-10 89 -20z m-687 -280 c4 -21 6 -40 5 -40 0 -1 -85 -4 -188 -6 l-187 -5 36
24 c33 22 40 24 79 14 24 -6 58 -11 76 -11 35 0 131 40 143 60 13 20 30 4 36
-36z m-1468 -195 c-5 -5 -35 -11 -68 -15 l-60 -7 19 22 c28 31 76 42 99 23 9
-9 14 -19 10 -23z"/>
<path d="M1780 2395 c-215 -38 -319 -80 -360 -147 -45 -75 -19 -111 114 -155
72 -25 95 -27 216 -27 l135 0 109 57 c132 69 136 72 136 106 0 34 -76 122
-134 156 -49 29 -95 31 -216 10z m75 -75 c60 -16 115 -42 109 -51 -3 -5 -38
-9 -77 -10 -40 0 -97 -4 -127 -9 -30 -5 -86 -12 -125 -15 -66 -6 -69 -6 -50
10 38 32 159 85 195 85 19 0 53 -5 75 -10z"/>
<path d="M2345 2094 c-68 -12 -173 -41 -226 -62 -32 -13 -96 -67 -110 -94 -16
-30 6 -71 49 -95 20 -11 69 -39 107 -62 39 -23 96 -47 128 -53 70 -15 100 -2
149 62 20 27 54 55 85 70 98 49 103 67 44 156 -63 95 -90 104 -226 78z m96
-89 c17 -9 27 -20 23 -24 -5 -4 -44 -20 -87 -35 -73 -25 -82 -26 -133 -15 -30
7 -54 15 -54 18 0 7 49 40 95 65 36 20 108 15 156 -9z"/>
<path d="M1120 1771 c-80 -21 -116 -40 -157 -83 -63 -66 -63 -113 1 -162 41
-31 113 -65 138 -66 9 0 44 23 78 51 33 28 96 70 138 93 58 31 78 47 80 65 5
36 -5 65 -34 94 -24 25 -33 27 -103 26 -42 0 -105 -8 -141 -18z m115 -51 c6
-9 -83 -60 -106 -60 -19 0 10 29 50 50 42 22 48 23 56 10z"/>
</g>
</svg>
